<svg width="885" height="199" viewBox="0 0 885 199" fill="none" xmlns="http://www.w3.org/2000/svg">
<path d="M147 98V98C147 48.2944 187.294 8 237 8V8C286.706 8 327 48.2944 327 98V98" stroke="#B82626" stroke-width="15"/>
<path d="M327 101V101C327 150.706 286.706 191 237 191V191C187.294 191 147 150.706 147 101V101" stroke="white" stroke-width="15"/>
<path d="M574.666 45.78L630.826 136.68V45.78H645.046V159H629.206L572.146 66.84V159H557.746V45.78H574.666ZM706.708 45.78H723.988L761.968 159H747.208L737.488 130.2H692.488L682.768 159H667.828L706.708 45.78ZM696.268 119.04H733.888L715.168 63.24L696.268 119.04ZM824.104 43.8C836.224 43.8 845.944 46.86 853.264 52.98C860.704 58.98 865.804 66.84 868.564 76.56L853.264 79.62C850.864 72.54 847.084 66.96 841.924 62.88C836.884 58.68 830.944 56.58 824.104 56.58C814.624 56.58 806.764 60.54 800.524 68.46C794.284 76.38 791.164 87.42 791.164 101.58C791.164 115.62 793.924 126.9 799.444 135.42C805.084 143.94 813.304 148.2 824.104 148.2C833.104 148.2 840.184 145.86 845.344 141.18C850.624 136.38 853.264 130.08 853.264 122.28H868.564C868.564 134.16 864.484 143.58 856.324 150.54C848.284 157.5 837.184 160.98 823.024 160.98C808.984 160.98 797.584 155.58 788.824 144.78C780.184 133.98 775.864 119.52 775.864 101.4C775.864 83.28 780.364 69.18 789.364 59.1C798.364 48.9 809.944 43.8 824.104 43.8Z" fill="#8F8F8F"/>
<path d="M372.699 45.78V98.16L423.279 45.78H442.899L393.399 96.72L445.959 159H427.599L383.859 106.62L372.699 118.14V159H358.299V45.78H372.699ZM467.807 45.78H537.467V58.02H482.027V96H534.227V108.06H482.027V146.58H537.467V159H467.807V45.78Z" fill="white"/>
<path d="M82.526 45.78C95.006 45.78 104.486 48.96 110.966 55.32C117.566 61.56 120.866 70.02 120.866 80.7C120.866 91.38 117.566 99.84 110.966 106.08C104.486 112.2 95.006 115.26 82.526 115.26H60.206V159H45.986V45.78H82.526ZM82.526 103.02C90.326 103.02 96.206 101.04 100.166 97.08C104.246 93.12 106.286 87.72 106.286 80.88C106.286 73.92 104.246 68.4 100.166 64.32C96.206 60.12 90.326 58.02 82.526 58.02H60.206V103.02H82.526Z" fill="white"/>
</svg>
