<svg width="70" height="70" viewBox="0 0 70 70" fill="none" xmlns="http://www.w3.org/2000/svg">
<mask id="mask0_3_25" style="mask-type:alpha" maskUnits="userSpaceOnUse" x="0" y="0" width="70" height="70">
<rect width="70" height="70" fill="white"/>
</mask>
<g mask="url(#mask0_3_25)">
<path d="M64.6531 41.9362L63.2465 41.4149L63.2465 41.4149L64.6531 41.9362ZM66.3631 40.374C66.0174 39.6212 65.1269 39.2911 64.374 39.6369L52.1058 45.2708C51.353 45.6165 51.0229 46.507 51.3686 47.2599C51.7144 48.0127 52.6049 48.3428 53.3578 47.997L64.2629 42.9891L69.2708 53.8942C69.6165 54.647 70.507 54.9771 71.2599 54.6314C72.0127 54.2856 72.3428 53.3951 71.997 52.6422L66.3631 40.374ZM66.0596 42.4574L66.4065 41.5212L63.5935 40.4788L63.2465 41.4149L66.0596 42.4574ZM3.57781 41.4769C13.515 71.114 55.1974 71.7681 66.0596 42.4574L63.2465 41.4149C53.3679 68.0717 15.4596 67.4768 6.42219 40.5231L3.57781 41.4769Z" fill="white"/>
<path d="M64.6803 30.0968L63.2663 30.5973L63.2663 30.5973L64.6803 30.0968ZM5.68666 32.3336C4.95014 32.7128 4.04563 32.4232 3.6664 31.6867L-2.51357 19.6842C-2.8928 18.9477 -2.60316 18.0432 -1.86663 17.664C-1.1301 17.2847 -0.2256 17.5744 0.153634 18.3109L5.64694 28.9797L16.3158 23.4864C17.0523 23.1072 17.9568 23.3968 18.336 24.1334C18.7153 24.8699 18.4256 25.7744 17.6891 26.1536L5.68666 32.3336ZM66.0944 29.5963L66.414 30.4995L63.586 31.5005L63.2663 30.5973L66.0944 29.5963ZM3.57146 30.5425C13.2074 0.451253 55.5522 -0.189563 66.0944 29.5963L63.2663 30.5973C53.6827 3.51979 15.1883 4.10236 6.42854 31.4575L3.57146 30.5425Z" fill="white"/>
</g>
</svg>
