<svg width="70" height="70" viewBox="0 0 70 70" fill="none" xmlns="http://www.w3.org/2000/svg">
<path d="M29.1667 5.83333C29.1667 5.83333 28.1023 22.902 24.3056 29.1667C20.5088 35.4313 9.72223 37.9167 9.72223 37.9167C9.72223 37.9167 20.5088 40.402 24.3056 46.6667C28.1023 52.9313 29.1667 70 29.1667 70C29.1667 70 30.231 52.9313 34.0278 46.6667C37.8245 40.402 48.6111 37.9167 48.6111 37.9167C48.6111 37.9167 37.8245 35.4313 34.0278 29.1667C30.231 22.902 29.1667 5.83333 29.1667 5.83333Z" fill="white"/>
<path d="M50.5556 0C50.5556 0 50.0234 8.53434 48.125 11.6667C46.2266 14.799 40.8333 16.0417 40.8333 16.0417C40.8333 16.0417 46.2266 17.2843 48.125 20.4167C50.0234 23.549 50.5556 32.0833 50.5556 32.0833C50.5556 32.0833 51.0877 23.549 52.9861 20.4167C54.8845 17.2843 60.2778 16.0417 60.2778 16.0417C60.2778 16.0417 54.8845 14.799 52.9861 11.6667C51.0877 8.53434 50.5556 0 50.5556 0Z" fill="white"/>
</svg>
